mtllib FancyCoinB.mtl
# vertices
v -66 35.033320996790856 -4
v -66 22.966679003211453 2.9666790032078225
v -66 16 15.033320996793918
v -66 16 28.966679003213358
v -66 22.96667900320608 41.03332099678664
v -66 35.03332099679392 48
v -66 48.96667900320608 48
v -66 61.03332099679237 41.03332099678817
v -66 68 28.966679003209165
v -66 68 15.033320996790847
v -66 61.03332099679085 2.9666790032091477
v -66 48.96667900320916 -4
v -62 48.96667900320608 48
v -62 35.03332099679392 48
v -62 61.03332099679237 41.03332099678817
v -62 22.96667900320608 41.03332099678664
v -62 16 28.966679003213358
v -62 68 28.966679003209165
v -62 16 15.033320996793918
v -62 68 15.033320996790847
v -62 22.966679003211453 2.9666790032078225
v -62 61.03332099679085 2.9666790032091477
v -62 35.033320996790856 -4
v -62 48.96667900320916 -4
v -68 44.10526315789684 20.631578947366506
v -68 44.33576642336266 20.919708029199683
v -68 44.68292682927734 20.439024390240885
v -66 44.33576642336266 20.919708029199683
v -66 44.10526315789684 20.631578947366506
v -66 44.68292682927734 20.439024390240885
v -68 62.497422611926595 42.49742261191932
v -68 70 29.502577388073405
v -68 68 28.96667900320972
v -68 61.03332099679512 41.03332099678589
v -60 68 28.966679003209293
v -60 70 29.50257738807305
v -60 61.033320996795574 41.03332099678467
v -60 62.49742261192724 42.49742261191829
v -68 68 15.033320996779366
v -68 68 28.966679003218815
v -68 70 29.50257738808071
v -68 70 14.497422611915576
v -60 70 29.50257738808125
v -60 68 28.966679003219355
v -60 68 15.033320996781299
v -60 70 14.497422611917507
v -68 70 14.497422611941147
v -68 62.49742261191568 1.502577388077043
v -68 61.03332099678127 2.9666790032059964
v -68 68 15.03332099680257
v -60 62.497422611921735 1.5025773880749105
v -60 70 14.497422611928528
v -60 61.03332099678674 2.966679003204446
v -60 68 15.033320996790163
v -68 49.50257738806977 -6
v -68 48.966679003216996 -4
v -68 61.033320996768026 2.966679003193377
v -68 62.497422611909556 1.5025773880807805
v -60 62.49742261191445 1.5025773880975384
v -60 61.03332099678315 2.9666790031999133
v -60 48.96667900321849 -4
v -60 49.50257738806752 -6
v -68 49.50257738808432 -6
v -68 34.49742261193569 -6
v -68 35.033320996801194 -4
v -68 48.96667900320608 -4
v -60 35.033320996797556 -4
v -60 34.49742261193205 -6
v -60 48.96667900319483 -4
v -60 49.502577388073064 -6
v -68 21.50257738808432 1.502577388077043
v -68 22.96667900319153 2.9666790031951678
v -68 35.033320996779366 -4
v -68 34.49742261189852 -6
v -60 35.033320996803006 -4
v -60 22.96667900320376 2.966679003212741
v -60 34.49742261191921 -6
v -60 21.502577388088504 1.5025773880865732
v -68 16 15.033320996797556
v -68 22.966679003213358 2.9666790032133576
v -68 21.502577388073405 1.502577388073405
v -68 14 14.49742261193124
v -60 21.502577388082706 1.5025773880554203
v -60 22.96667900322268 2.9666790031953942
v -60 14 14.497422611929364
v -60 16 15.033320996795688
v -68 16 15.033320996793762
v -68 14 14.497422611931839
v -68 14 29.502577388067948
v -68 16 28.96667900320656
v -60 14 14.497422611914672
v -60 16 15.033320996776595
v -60 16 28.96667900320656
v -60 14 29.502577388067948
v -68 22.966679003220634 41.033320996801194
v -68 16 28.966679003196987
v -68 14 29.502577388061894
v -68 21.50257738807811 42.49742261194371
v -60 14 29.50257738805996
v -60 16 28.966679003194983
v -60 22.9666790032137 41.0333209967867
v -60 21.50257738807097 42.497422611929416
v -68 35.03332099680483 48
v -68 22.966679003202444 41.03332099678664
v -68 21.502577388069767 42.49742261191932
v -68 34.49742261194565 50
v -60 34.49742261193954 50
v -60 21.502577388068904 42.49742261192394
v -60 22.966679003202742 41.033320996790096
v -60 35.03332099679915 48
v -68 62.49742261193751 42.49742261193387
v -68 61.033320996797556 41.03332099679392
v -68 48.966679003208846 48
v -68 49.502577388058015 50
v -60 61.03332099680596 41.03332099679465
v -60 62.49742261193603 42.49742261192472
v -60 49.50257738805353 50
v -60 48.96667900320798 48
v -68 34.49742261193023 50
v -68 49.50257738806977 50
v -68 48.966679003191416 48
v -68 35.033320996787886 48
v -60 48.96667900320051 48
v -60 49.50257738807886 50
v -60 34.4974226119308 50
v -60 35.033320996788454 48
v -68 53.26649929546329 23.63324964774074
v -68 44.204081632644375 21.102040816331282
v -68 42 24.153846153852783
v -68 44 32
v -68 53.8981379200851 38
v -60 44.204081632653946 21.102040816312456
v -60 53.26649929545819 23.633249647717818
v -60 42 24.153846153847212
v -60 53.89813792008089 38
v -60 44 32
v -68 32.07025509762752 37.90272371095125
v -68 44.335766423348105 20.91970802918877
v -68 44.10526315789708 20.63157894737404
v -68 32.18300507409216 23.93899830864393
v -60 44.33576642335231 20.919708029195878
v -60 32.07025509763025 37.90272371096041
v -60 32.18300507409496 23.938998308643917
v -60 44.10526315789636 20.631578947375004
v -68 44.20408163266134 21.10204081632385
v -68 53.26649929546693 23.63324964772619
v -68 60.63355756877094 17.27050983124832
v -68 49.67308424550542 14.760344890838422
v -60 60.633557568776844 17.270509831248347
v -60 53.266499295469366 23.63324964772921
v -60 44.20408163266057 21.102040816325978
v -60 49.67308424550726 14.76034489083752
v -68 44.682926829247 20.439024390271733
v -68 49.67308424550341 14.7603448908405
v -68 43 4.458980337505636
v -68 37.51672076216276 13.89590095271986
v -68 44.10526315789713 20.631578947391283
v -60 37.51672076216698 13.895900952717312
v -60 43 4.458980337510341
v -60 49.67308424549678 14.760344890834958
v -60 44.10526315788465 20.63157894737166
v -60 44.68292682926029 20.439024390243524
v -68 44.10526315790139 20.63157894738532
v -68 37.51672076217801 13.89590095272797
v -68 25.36644243122813 17.270509831259275
v -68 32.183005074105495 23.938998308649946
v -60 25.366442431225106 17.270509831253705
v -60 37.5167207621749 13.895900952722425
v -60 44.1052631578898 20.63157894737111
v -60 32.1830050740937 23.938998308635792
v -68 32.07025509763298 37.90272371095489
v -68 32.10186207991683 38
v -68 44 32
v -68 42 24.15384615383419
v -60 32.10186207991597 38
v -60 32.07025509763292 37.90272371095741
v -60 44 32
v -60 42 24.153846153836636

# texture coordinates
vt 0.16432282 0.375
vt 0.07005218 0.32057282
vt 0.015625 0.22630218
vt 0.015625 0.11744782
vt 0.07005218 0.023177177
vt 0.16432282 -0.03125
vt 0.27317718 -0.03125
vt 0.36744782 0.023177177
vt 0.421875 0.11744782
vt 0.421875 0.22630218
vt 0.36744782 0.32057282
vt 0.27317718 0.375
vt 0.27317718 1
vt 0.27317718 1.03125
vt 0.16432282 1.03125
vt 0.16432282 1
vt 0.7676299 1
vt 0.7676299 1.03125
vt 0.65877557 1.03125
vt 0.65877557 1
vt -0.40424496 1
vt -0.40424496 1.03125
vt -0.5130993 1.03125
vt -0.5130993 1
vt -0.35107127 1
vt -0.35107127 1.03125
vt -0.45992562 1.03125
vt -0.45992562 1
vt 0.67867553 1
vt 0.67867553 1.03125
vt 0.5698212 1.03125
vt 0.5698212 1
vt -0.11744782 1
vt -0.11744782 1.03125
vt -0.22630218 1.03125
vt -0.22630218 1
vt 0.22630218 1
vt 0.22630218 1.03125
vt 0.11744782 1.03125
vt 0.11744782 1
vt -0.5698212 1
vt -0.5698212 1.03125
vt -0.67867553 1.03125
vt -0.67867553 1
vt 0.45992562 1
vt 0.45992562 1.03125
vt 0.35107127 1.03125
vt 0.35107127 1
vt -0.65877557 1
vt -0.65877557 1.03125
vt -0.7676299 1.03125
vt -0.7676299 1
vt 0.5130993 1
vt 0.5130993 1.03125
vt 0.40424496 1.03125
vt 0.40424496 1
vt -0.16432282 1
vt -0.16432282 1.03125
vt -0.27317718 1.03125
vt -0.27317718 1
vt -0.36744782 0.32057282
vt -0.421875 0.22630218
vt -0.421875 0.11744782
vt -0.36744782 0.023177177
vt -0.27317718 -0.03125
vt -0.16432282 -0.03125
vt -0.07005218 0.023177177
vt -0.015625 0.11744782
vt -0.015625 0.22630218
vt -0.07005218 0.32057282
vt -0.16432282 0.375
vt -0.27317718 0.375
vt 0.14144737 0.8231908
vt 0.14324817 0.8209398
vt 0.14596036 0.8246951
vt 0.091143936 1.046875
vt 0.091143936 1.0625
vt 0.08826125 1.0625
vt 0.08826125 1.046875
vt 0.6511341 1.046875
vt 0.6511341 1.0625
vt 0.6465017 1.0625
vt 0.6465017 1.046875
vt 0.26106888 1.046875
vt 0.26106888 1.0625
vt 0.25631177 1.0625
vt 0.25631177 1.046875
vt -0.14324817 0.8209398
vt -0.14144737 0.8231908
vt -0.14596036 0.8246951
vt -0.1367389 -0.3007611
vt -0.078125 -0.19923888
vt -0.09375 -0.19505218
vt -0.14817718 -0.28932282
vt 0.31919163 1
vt 0.31919163 1.015625
vt 0.30301547 1.015625
vt 0.30301547 1
vt -0.90740126 1
vt -0.90740126 1.015625
vt -1.0162556 1.015625
vt -1.0162556 1
vt 1.0204424 1
vt 1.0204424 1.015625
vt 0.9032146 1.015625
vt 0.9032146 1
vt -0.24797964 1
vt -0.24797964 1.015625
vt -0.26415586 1.015625
vt -0.26415586 1
vt 0.078125 -0.19923888
vt 0.1367389 -0.3007611
vt 0.14817718 -0.28932282
vt 0.09375 -0.19505218
vt -0.09375 -0.08619782
vt -0.078125 -0.08201111
vt -0.30301535 1
vt -0.30301535 1.015625
vt -0.31919152 1.015625
vt -0.31919152 1
vt 0.19505218 1
vt 0.19505218 1.015625
vt 0.08619782 1.015625
vt 0.08619782 1
vt -0.08201111 1
vt -0.08201111 1.015625
vt -0.19923888 1.015625
vt -0.19923888 1
vt -0.64329195 1
vt -0.64329195 1.015625
vt -0.6594682 1.015625
vt -0.6594682 1
vt 0.078125 -0.08201111
vt 0.09375 -0.08619782
vt -0.1367389 0.019511115
vt -0.14817718 0.00807282
vt 0.3173174 1
vt 0.3173174 1.015625
vt 0.20008963 1.015625
vt 0.20008963 1
vt -0.3653975 1
vt -0.3653975 1.015625
vt -0.3815737 1.015625
vt -0.3815737 1
vt -0.20427635 1
vt -0.20427635 1.015625
vt -0.3131307 1.015625
vt -0.3131307 1
vt 0.6594682 1
vt 0.6594682 1.015625
vt 0.64329195 1.015625
vt 0.64329195 1
vt 0.14817718 0.00807282
vt 0.1367389 0.019511115
vt -0.2382611 0.078125
vt -0.24244782 0.0625
vt 0.3815737 1
vt 0.3815737 1.015625
vt 0.3653975 1.015625
vt 0.3653975 1
vt -1.1177387 1
vt -1.1177387 1.015625
vt -1.133915 1.015625
vt -1.133915 1
vt -0.19453967 1
vt -0.19453967 1.015625
vt -0.30339402 1.015625
vt -0.30339402 1
vt 0.30758062 1
vt 0.30758062 1.015625
vt 0.19035283 1.015625
vt 0.19035283 1
vt 0.24244782 0.0625
vt 0.2382611 0.078125
vt -0.3554889 0.078125
vt -0.35130218 0.0625
vt -0.8948791 1
vt -0.8948791 1.015625
vt -0.9110553 1.015625
vt -0.9110553 1
vt -0.24244782 1
vt -0.24244782 1.015625
vt -0.35130218 1.015625
vt -0.35130218 1
vt 0.3554889 1
vt 0.3554889 1.015625
vt 0.2382611 1.015625
vt 0.2382611 1
vt 1.133915 1
vt 1.133915 1.015625
vt 1.1177387 1.015625
vt 1.1177387 1
vt 0.3554889 0.078125
vt 0.35130218 0.0625
vt -0.4570111 0.019511115
vt -0.44557282 0.00807282
vt 0.66483533 1
vt 0.66483533 1.015625
vt 0.555981 1.015625
vt 0.555981 1
vt 0.9110553 1
vt 0.9110553 1.015625
vt 0.8948791 1.015625
vt 0.8948791 1
vt -0.68473685 1
vt -0.68473685 1.015625
vt -0.7009131 1.015625
vt -0.7009131 1
vt -0.5517943 1
vt -0.5517943 1.015625
vt -0.6690221 1.015625
vt -0.6690221 1
vt 0.44557282 0.00807282
vt 0.4570111 0.019511115
vt -0.5 -0.08619782
vt -0.515625 -0.08201111
vt 0.7009131 1
vt 0.7009131 1.015625
vt 0.68473685 1.015625
vt 0.68473685 1
vt -0.9032146 1
vt -0.9032146 1.015625
vt -1.0204424 1.015625
vt -1.0204424 1
vt 1.0162556 1
vt 1.0162556 1.015625
vt 0.9074013 1.015625
vt 0.9074013 1
vt -0.73977244 1
vt -0.73977244 1.015625
vt -0.75594866 1.015625
vt -0.75594866 1
vt 0.5 -0.08619782
vt 0.515625 -0.08201111
vt -0.515625 -0.19923888
vt -0.5 -0.19505218
vt 0.75594866 1
vt 0.75594866 1.015625
vt 0.73977244 1.015625
vt 0.73977244 1
vt 0.22271101 1
vt 0.22271101 1.015625
vt 0.20653482 1.015625
vt 0.20653482 1
vt 0.19923888 1
vt 0.19923888 1.015625
vt 0.08201111 1.015625
vt 0.08201111 1
vt -0.08619782 1
vt -0.08619782 1.015625
vt -0.19505218 1.015625
vt -0.19505218 1
vt 0.5 -0.19505218
vt 0.515625 -0.19923888
vt -0.44557282 -0.28932282
vt -0.4570111 -0.3007611
vt -0.20653494 1
vt -0.20653494 1.015625
vt -0.22271113 1.015625
vt -0.22271113 1
vt 0.3131307 1
vt 0.3131307 1.015625
vt 0.20427635 1.015625
vt 0.20427635 1
vt -0.20008916 1
vt -0.20008916 1.015625
vt -0.31731695 1.015625
vt -0.31731695 1
vt -0.05518341 1
vt -0.05518341 1.015625
vt -0.0713596 1.015625
vt -0.0713596 1
vt 0.4570111 -0.3007611
vt 0.44557282 -0.28932282
vt -0.35130218 -0.34375
vt -0.3554889 -0.359375
vt -0.19035283 1
vt -0.19035283 1.015625
vt -0.3075806 1.015625
vt -0.3075806 1
vt 0.0713596 1
vt 0.0713596 1.015625
vt 0.055183403 1.015625
vt 0.055183403 1
vt 0.3033939 1
vt 0.3033939 1.015625
vt 0.19453955 1.015625
vt 0.19453955 1
vt 0.6971576 1
vt 0.6971576 1.015625
vt 0.6809814 1.015625
vt 0.6809814 1
vt 0.3554889 -0.359375
vt 0.35130218 -0.34375
vt -0.24244782 -0.34375
vt -0.2382611 -0.359375
vt 0.26415575 1
vt 0.26415575 1.015625
vt 0.24797952 1.015625
vt 0.24797952 1
vt -0.45812172 1
vt -0.45812172 1.015625
vt -0.47429788 1.015625
vt -0.47429788 1
vt -0.55598104 1
vt -0.55598104 1.015625
vt -0.66483545 1.015625
vt -0.66483545 1
vt 0.6690216 1
vt 0.6690216 1.015625
vt 0.5517938 1.015625
vt 0.5517938 1
vt 0.24244782 -0.34375
vt 0.2382611 -0.359375
vt 0.47429803 1
vt 0.47429803 1.015625
vt 0.45812187 1.015625
vt 0.45812187 1
vt -0.2382611 1
vt -0.2382611 1.015625
vt -0.3554889 1.015625
vt -0.3554889 1
vt 0.35130218 1
vt 0.35130218 1.015625
vt 0.24244782 1.015625
vt 0.24244782 1
vt -0.6809814 1
vt -0.6809814 1.015625
vt -0.6971576 1.015625
vt -0.6971576 1
vt 0.21301952 0.79974025
vt 0.1422194 0.8195153
vt 0.125 0.7956731
vt 0.140625 0.734375
vt 0.21795419 0.6875
vt -0.5098364 0.046875
vt -0.5098364 0.0625
vt -0.6239319 0.0625
vt -0.6239319 0.046875
vt -0.63022655 0.04687476
vt -0.63022655 0.06249976
vt -0.65963674 0.06249976
vt -0.65963674 0.04687476
vt 0.2179538 0.04687476
vt 0.2179538 0.06249976
vt 0.12499958 0.06249976
vt 0.12499958 0.04687476
vt 0.3046125 0.046874776
vt 0.3046125 0.06249977
vt 0.19643942 0.06249977
vt 0.19643942 0.046874776
vt 0.6432421 0.04687476
vt 0.6432421 0.06249976
vt 0.5580839 0.06249976
vt 0.5580839 0.04687476
vt -0.125 0.7956731
vt -0.1422194 0.8195153
vt -0.21301952 0.79974025
vt -0.21795419 0.6875
vt -0.140625 0.734375
vt 0.04742387 0.68825996
vt 0.048304737 0.7973516
vt 0.6465017 0.04687476
vt 0.6465017 0.06249976
vt 0.48283672 0.06249976
vt 0.48283672 0.04687476
vt -0.6078094 0.04687476
vt -0.6078094 0.06249976
vt -0.7389308 0.06249976
vt -0.7389308 0.04687476
vt 0.015728772 0.04687476
vt 0.015728772 0.06249976
vt 0.012846082 0.06249976
vt 0.012846082 0.04687476
vt 0.19696158 0.04687476
vt 0.19696158 0.06249976
vt 0.09868498 0.06249976
vt 0.09868498 0.04687476
vt -0.04742387 0.68825996
vt -0.048304737 0.7973516
vt 0.27057466 0.84944916
vt 0.18494597 0.8690598
vt 0.7283677 0.04687476
vt 0.7283677 0.06249976
vt 0.6432425 0.06249976
vt 0.6432425 0.04687476
vt 0.5842113 0.046875
vt 0.5842113 0.0625
vt 0.47011578 0.0625
vt 0.47011578 0.046875
vt 0.030042976 0.04687476
vt 0.030042976 0.06249976
vt -0.05648637 0.06249976
vt -0.05648637 0.04687476
vt -0.6596366 0.04687476
vt -0.6596366 0.06249976
vt -0.75929934 0.06249976
vt -0.75929934 0.04687476
vt -0.18494597 0.8690598
vt -0.27057466 0.84944916
vt 0.14596035 0.8246951
vt 0.18494596 0.8690598
vt 0.13281249 0.9495392
vt 0.08997436 0.87581325
vt 0.14144735 0.8231908
vt 0.06981049 0.04687476
vt 0.06981049 0.06249976
vt -0.0024539009 0.06249976
vt -0.0024539009 0.04687476
vt 0.11379653 0.04687476
vt 0.11379653 0.06249976
vt 0.03004247 0.06249976
vt 0.03004247 0.04687476
vt 0.08826119 0.04687476
vt 0.08826119 0.06249976
vt -0.019148022 0.06249976
vt -0.019148022 0.04687476
vt 0.74440706 0.04687477
vt 0.74440706 0.06249976
vt 0.65113384 0.06249976
vt 0.65113384 0.04687477
vt -0.27120388 0.04687476
vt -0.27120388 0.06249976
vt -0.27596098 0.06249976
vt -0.27596098 0.04687476
vt -0.13281249 0.9495392
vt -0.18494596 0.8690598
vt -0.14596035 0.8246951
vt -0.14144735 0.8231908
vt -0.08997436 0.87581325
vt 0.08997437 0.87581325
vt -0.004949674 0.84944916
vt 0.16782986 0.04687476
vt 0.16782986 0.06249976
vt 0.06981084 0.06249976
vt 0.06981084 0.04687476
vt 0.04966548 0.04687476
vt 0.04966548 0.06249976
vt -0.05774373 0.06249976
vt -0.05774373 0.04687476
vt 0.09868519 0.04687476
vt 0.09868519 0.06249976
vt 0.027477473 0.06249976
vt 0.027477473 0.04687476
vt 0.7240393 0.046875
vt 0.7240393 0.0625
vt 0.5929179 0.0625
vt 0.5929179 0.046875
vt 0.004949674 0.84944916
vt -0.08997437 0.87581325
vt 0.04767081 0.6875
vt 0.19776075 0.04687476
vt 0.19776075 0.06249976
vt 0.19696166 0.06249976
vt 0.19696166 0.04687476
vt 0.12500022 0.04687476
vt 0.12500022 0.06249976
vt 0.047671027 0.06249976
vt 0.047671027 0.04687476
vt -0.20609632 0.04687476
vt -0.20609632 0.06249976
vt -0.3142694 0.06249976
vt -0.3142694 0.04687476
vt -0.4977286 0.04687476
vt -0.4977286 0.06249976
vt -0.63022625 0.06249976
vt -0.63022625 0.04687476
vt -0.04767081 0.6875

# normals
vn -1 0 -0
vn 0 0 1
vn 0 0.499999999999997 0.8660254037844404
vn 0 -0.500000000000002 0.8660254037844375
vn 0 -0.8660254037844397 0.4999999999999981
vn 0 0.8660254037844402 0.49999999999999717
vn 0 -1 -0
vn 0 1 -0
vn 0 -0.8660254037844413 -0.49999999999999545
vn 0 0.8660254037844413 -0.49999999999999545
vn 0 -0.49999999999999545 -0.8660254037844413
vn -0 0.49999999999999545 -0.8660254037844413
vn -0 0 -1
vn 1 0 -0
vn 0 -0.7808688094430304 0.6246950475544243
vn 0 0.8106792283998809 0.5854905538443584
vn 0 -0.31622776601683794 -0.9486832980505138
vn -5.147486843644793e-14 0.2588190451032081 -0.9659258262888842
vn -2.6645305407630284e-14 -0.8660254037844749 -0.4999999999999373
vn -5.327239802959176e-15 0.8660254037841506 0.5000000000004989
vn 1.4820472537384403e-13 -0.7071067811874534 0.7071067811856415
vn -6.5201500019516e-14 -0.25881904510236275 0.9659258262891106
vn 2.333527369119661e-13 -0.2588190451021451 -0.965925826289169
vn -7.886682570513401e-13 0.8660254037841809 -0.5000000000004464
vn 3.4667787695560615e-13 -0.7071067811852298 -0.7071067811878653
vn 6.892264536874228e-13 -0.866025403784386 0.5000000000000911
vn 1.523656105719243e-12 0.25881904510229875 0.9659258262891278
vn -1.91424847983542e-12 0.7071067811795606 0.7071067811935343
vn 1.3726631583073215e-13 -0.965925826290322 -0.2588190450978418
vn 2.3737156997167193e-13 -0.49999999999995354 0.8660254037844656
vn 1.5078077862316762e-12 0.500000000000915 -0.8660254037839102
vn -4.3925221065759376e-13 -0.9659258262886747 0.25881904510398923
vn 1.3589365267197677e-12 0.9659258262871373 0.25881904510972686
vn -2.6667027252879585e-12 0.499999999998948 0.866025403785046
vn -2.4982469481100943e-12 0.965925826286753 -0.25881904511116127
vn -4.7228191790986e-13 -0.7071067811869592 0.7071067811861357
vn 1.293217057945425e-12 -0.5000000000015028 -0.8660254037835711
vn -2.4116512059009183e-12 0.7071067811872064 -0.7071067811858887
vn -1.1731765877178102e-13 -0.8660254037844961 -0.49999999999990064
vn 1.1348670468642626e-13 0.8660254037845252 0.49999999999985
vn 2.2648942112032825e-13 -0.2588190451038868 0.9659258262887023
vn -2.072721369041449e-12 0.25881904510237563 -0.9659258262891073
vn 0 0.2588190451021451 0.965925826289169
vn -2.333527369119122e-13 -0.25881904510297754 -0.965925826288946
vn -1.5521735532934044e-13 0.8660254037845994 -0.49999999999972156
vn 1.2086915197372045e-13 -0.866025403784585 0.4999999999997466
vn 1.8941679191503675e-12 0.7071067811869044 0.7071067811861906
vn -5.541513226138634e-13 -0.4999999999997584 0.8660254037845782
vn 3.3160352727400527e-13 -0.7071067811865338 -0.7071067811865612
vn 3.5527136787982275e-13 0.4999999999996801 -0.8660254037846233
vn 6.863315791532706e-13 0.965925826289773 0.258819045099891
vn -6.782799421514365e-13 0.7071067811865133 -0.7071067811865819
vn -3.019858948277738e-13 -0.9659258262908437 0.25881904509589515
vn 6.043002279039646e-13 -0.499999999999383 -0.8660254037847949
vn 1.0830870434932148e-12 0.49999999999908024 0.8660254037849697
vn -1.098130526642221e-12 0.9659258262871236 -0.2588190451097781
vn 6.863315791528805e-14 -0.965925826289224 -0.25881904510194015
vn -2.5883091207292574e-12 0.2690121368791048 -0.9631367868645335
vn -4.0769573869293094e-13 -0.8106792284010604 -0.5854905538427253
vn 0 -0.5183730223637878 0.8551546115676579
vn 1.7199655458583562e-13 -0.9690145353270175 0.24700370508347527
vn 5.112460378162555e-13 0.9990349246392711 -0.04392287958462923
vn -9.462765300735275e-13 0.8106792283998077 0.5854905538444599
vn 9.188656328282388e-14 -0.2673197746834106 -0.9636078756751683
vn 1.4481341229398964e-13 0.7808688094478773 -0.6246950475483654
vn 3.4991568516513355e-13 -0.9999674028906756 -0.008074227893557924
vn -4.851222159971126e-13 0.6536363691510074 0.7568087584872996
vn -2.8219068369421236e-13 -0.26901213687886827 0.9631367868645996
vn -1.6130516225018313e-13 0.22324009759970345 -0.9747634886595183
vn 1.0065225270906488e-13 -0.7572904577753051 -0.6530782208606168
vn 2.962956204395134e-13 -0.8646386365713093 -0.5023942954971793
vn 3.1884476316784647e-13 0.8392915170341009 -0.5436816618524092
vn 6.000860951860034e-13 -0.7148715765029142 0.6992557680192836
vn 1.079782336208219e-12 0.7511778392782139 0.6600998816673987
vn 2.8199014419485436e-12 0.3162277660211613 0.9486832980490726
vn -7.720899458933306e-13 -0.2676093772529683 -0.9635274885576843
vn -2.0632895263171095e-13 0.7148715765027404 -0.6992557680194613
vn 2.3350208923503623e-13 -0.6993001558769413 0.714828155566417
vn 2.0991933734690337e-12 0.2673197746832031 0.9636078756752259
vn -1.04466549370635e-13 -0.9510565163026234 0.3090169943519578
vn 4.279132390272048e-14 0.45026866911911717 0.892893121045122
vn 7.546787599162445e-14 0.9690145353271175 -0.24700370508308334
vn 1.788956909969088e-13 -0.8106792283997494 -0.5854905538445404

o entity2_brush0
usemtl SBS - Tiny Texture Pack - 128x128/128x128/Wood/Wood_05-128x128
f  1/1/1  2/2/1  3/3/1  4/4/1  5/5/1  6/6/1  7/7/1  8/8/1  9/9/1  10/10/1  11/11/1  12/12/1
usemtl SBS - Tiny Texture Pack - 128x128/128x128/Wood/Wood_05-128x128
f  13/13/2  7/14/2  6/15/2  14/16/2
usemtl SBS - Tiny Texture Pack - 128x128/128x128/Wood/Wood_05-128x128
f  15/17/3  8/18/3  7/19/3  13/20/3
usemtl SBS - Tiny Texture Pack - 128x128/128x128/Wood/Wood_05-128x128
f  14/21/4  6/22/4  5/23/4  16/24/4
usemtl SBS - Tiny Texture Pack - 128x128/128x128/Wood/Wood_05-128x128
f  16/25/5  5/26/5  4/27/5  17/28/5
usemtl SBS - Tiny Texture Pack - 128x128/128x128/Wood/Wood_05-128x128
f  18/29/6  9/30/6  8/31/6  15/32/6
usemtl SBS - Tiny Texture Pack - 128x128/128x128/Wood/Wood_05-128x128
f  17/33/7  4/34/7  3/35/7  19/36/7
usemtl SBS - Tiny Texture Pack - 128x128/128x128/Wood/Wood_05-128x128
f  20/37/8  10/38/8  9/39/8  18/40/8
usemtl SBS - Tiny Texture Pack - 128x128/128x128/Wood/Wood_05-128x128
f  19/41/9  3/42/9  2/43/9  21/44/9
usemtl SBS - Tiny Texture Pack - 128x128/128x128/Wood/Wood_05-128x128
f  22/45/10  11/46/10  10/47/10  20/48/10
usemtl SBS - Tiny Texture Pack - 128x128/128x128/Wood/Wood_05-128x128
f  21/49/11  2/50/11  1/51/11  23/52/11
usemtl SBS - Tiny Texture Pack - 128x128/128x128/Wood/Wood_05-128x128
f  24/53/12  12/54/12  11/55/12  22/56/12
usemtl SBS - Tiny Texture Pack - 128x128/128x128/Wood/Wood_05-128x128
f  23/57/13  1/58/13  12/59/13  24/60/13
usemtl SBS - Tiny Texture Pack - 128x128/128x128/Wood/Wood_05-128x128
f  22/61/14  20/62/14  18/63/14  15/64/14  13/65/14  14/66/14  16/67/14  17/68/14  19/69/14  21/70/14  23/71/14  24/72/14

o entity2_brush1
usemtl SBS - Tiny Texture Pack 2 - 128x128/128x128/Stone/Stone_10-128x128
f  25/73/1  26/74/1  27/75/1
usemtl SBS - Tiny Texture Pack 2 - 128x128/128x128/Stone/Stone_10-128x128
f  28/76/15  26/77/15  25/78/15  29/79/15
usemtl SBS - Tiny Texture Pack 2 - 128x128/128x128/Stone/Stone_10-128x128
f  30/80/16  27/81/16  26/82/16  28/83/16
usemtl SBS - Tiny Texture Pack 2 - 128x128/128x128/Stone/Stone_10-128x128
f  29/84/17  25/85/17  27/86/17  30/87/17
usemtl SBS - Tiny Texture Pack 2 - 128x128/128x128/Stone/Stone_10-128x128
f  28/88/14  29/89/14  30/90/14

o entity3_brush0
usemtl SBS - Tiny Texture Pack 2 - 128x128/128x128/Tile/Tile_20-128x128
f  31/91/1  32/92/1  33/93/1  34/94/1
usemtl SBS - Tiny Texture Pack 2 - 128x128/128x128/Tile/Tile_20-128x128
f  35/95/18  33/96/18  32/97/18  36/98/18
usemtl SBS - Tiny Texture Pack 2 - 128x128/128x128/Tile/Tile_20-128x128
f  37/99/19  34/100/19  33/101/19  35/102/19
usemtl SBS - Tiny Texture Pack 2 - 128x128/128x128/Tile/Tile_20-128x128
f  36/103/20  32/104/20  31/105/20  38/106/20
usemtl SBS - Tiny Texture Pack 2 - 128x128/128x128/Tile/Tile_20-128x128
f  38/107/21  31/108/21  34/109/21  37/110/21
usemtl SBS - Tiny Texture Pack 2 - 128x128/128x128/Tile/Tile_20-128x128
f  36/111/14  38/112/14  37/113/14  35/114/14

o entity3_brush1
usemtl SBS - Tiny Texture Pack 2 - 128x128/128x128/Tile/Tile_20-128x128
f  39/115/1  40/93/1  41/92/1  42/116/1
usemtl SBS - Tiny Texture Pack 2 - 128x128/128x128/Tile/Tile_20-128x128
f  43/117/22  41/118/22  40/119/22  44/120/22
usemtl SBS - Tiny Texture Pack 2 - 128x128/128x128/Tile/Tile_20-128x128
f  44/121/7  40/122/7  39/123/7  45/124/7
usemtl SBS - Tiny Texture Pack 2 - 128x128/128x128/Tile/Tile_20-128x128
f  46/125/8  42/126/8  41/127/8  43/128/8
usemtl SBS - Tiny Texture Pack 2 - 128x128/128x128/Tile/Tile_20-128x128
f  45/129/23  39/130/23  42/131/23  46/132/23
usemtl SBS - Tiny Texture Pack 2 - 128x128/128x128/Tile/Tile_20-128x128
f  46/133/14  43/111/14  44/114/14  45/134/14

o entity3_brush2
usemtl SBS - Tiny Texture Pack 2 - 128x128/128x128/Tile/Tile_20-128x128
f  47/116/1  48/135/1  49/136/1  50/115/1
usemtl SBS - Tiny Texture Pack 2 - 128x128/128x128/Tile/Tile_20-128x128
f  51/137/24  48/138/24  47/139/24  52/140/24
usemtl SBS - Tiny Texture Pack 2 - 128x128/128x128/Tile/Tile_20-128x128
f  53/141/25  49/142/25  48/143/25  51/144/25
usemtl SBS - Tiny Texture Pack 2 - 128x128/128x128/Tile/Tile_20-128x128
f  54/145/26  50/146/26  49/147/26  53/148/26
usemtl SBS - Tiny Texture Pack 2 - 128x128/128x128/Tile/Tile_20-128x128
f  52/149/27  47/150/27  50/151/27  54/152/27
usemtl SBS - Tiny Texture Pack 2 - 128x128/128x128/Tile/Tile_20-128x128
f  52/133/14  54/134/14  53/153/14  51/154/14

o entity3_brush3
usemtl SBS - Tiny Texture Pack 2 - 128x128/128x128/Tile/Tile_20-128x128
f  55/155/1  56/156/1  57/136/1  58/135/1
usemtl SBS - Tiny Texture Pack 2 - 128x128/128x128/Tile/Tile_20-128x128
f  59/157/28  58/158/28  57/159/28  60/160/28
usemtl SBS - Tiny Texture Pack 2 - 128x128/128x128/Tile/Tile_20-128x128
f  61/161/29  56/162/29  55/163/29  62/164/29
usemtl SBS - Tiny Texture Pack 2 - 128x128/128x128/Tile/Tile_20-128x128
f  60/165/30  57/166/30  56/167/30  61/168/30
usemtl SBS - Tiny Texture Pack 2 - 128x128/128x128/Tile/Tile_20-128x128
f  62/169/31  55/170/31  58/171/31  59/172/31
usemtl SBS - Tiny Texture Pack 2 - 128x128/128x128/Tile/Tile_20-128x128
f  59/154/14  60/153/14  61/173/14  62/174/14

o entity3_brush4
usemtl SBS - Tiny Texture Pack 2 - 128x128/128x128/Tile/Tile_20-128x128
f  63/155/1  64/175/1  65/176/1  66/156/1
usemtl SBS - Tiny Texture Pack 2 - 128x128/128x128/Tile/Tile_20-128x128
f  67/177/32  65/178/32  64/179/32  68/180/32
usemtl SBS - Tiny Texture Pack 2 - 128x128/128x128/Tile/Tile_20-128x128
f  69/181/2  66/182/2  65/183/2  67/184/2
usemtl SBS - Tiny Texture Pack 2 - 128x128/128x128/Tile/Tile_20-128x128
f  68/185/13  64/186/13  63/187/13  70/188/13
usemtl SBS - Tiny Texture Pack 2 - 128x128/128x128/Tile/Tile_20-128x128
f  70/189/33  63/190/33  66/191/33  69/192/33
usemtl SBS - Tiny Texture Pack 2 - 128x128/128x128/Tile/Tile_20-128x128
f  68/193/14  70/174/14  69/173/14  67/194/14

o entity3_brush5
usemtl SBS - Tiny Texture Pack 2 - 128x128/128x128/Tile/Tile_20-128x128
f  71/195/1  72/196/1  73/176/1  74/175/1
usemtl SBS - Tiny Texture Pack 2 - 128x128/128x128/Tile/Tile_20-128x128
f  75/197/34  73/198/34  72/199/34  76/200/34
usemtl SBS - Tiny Texture Pack 2 - 128x128/128x128/Tile/Tile_20-128x128
f  77/201/35  74/202/35  73/203/35  75/204/35
usemtl SBS - Tiny Texture Pack 2 - 128x128/128x128/Tile/Tile_20-128x128
f  76/205/36  72/206/36  71/207/36  78/208/36
usemtl SBS - Tiny Texture Pack 2 - 128x128/128x128/Tile/Tile_20-128x128
f  78/209/37  71/210/37  74/211/37  77/212/37
usemtl SBS - Tiny Texture Pack 2 - 128x128/128x128/Tile/Tile_20-128x128
f  75/194/14  76/213/14  78/214/14  77/193/14

o entity3_brush6
usemtl SBS - Tiny Texture Pack 2 - 128x128/128x128/Tile/Tile_20-128x128
f  79/215/1  80/196/1  81/195/1  82/216/1
usemtl SBS - Tiny Texture Pack 2 - 128x128/128x128/Tile/Tile_20-128x128
f  83/217/38  81/218/38  80/219/38  84/220/38
usemtl SBS - Tiny Texture Pack 2 - 128x128/128x128/Tile/Tile_20-128x128
f  85/221/39  82/222/39  81/223/39  83/224/39
usemtl SBS - Tiny Texture Pack 2 - 128x128/128x128/Tile/Tile_20-128x128
f  84/225/40  80/226/40  79/227/40  86/228/40
usemtl SBS - Tiny Texture Pack 2 - 128x128/128x128/Tile/Tile_20-128x128
f  86/229/41  79/230/41  82/231/41  85/232/41
usemtl SBS - Tiny Texture Pack 2 - 128x128/128x128/Tile/Tile_20-128x128
f  84/213/14  86/233/14  85/234/14  83/214/14

o entity3_brush7
usemtl SBS - Tiny Texture Pack 2 - 128x128/128x128/Tile/Tile_20-128x128
f  87/215/1  88/216/1  89/235/1  90/236/1
usemtl SBS - Tiny Texture Pack 2 - 128x128/128x128/Tile/Tile_20-128x128
f  91/237/42  88/238/42  87/239/42  92/240/42
usemtl SBS - Tiny Texture Pack 2 - 128x128/128x128/Tile/Tile_20-128x128
f  93/241/43  90/242/43  89/243/43  94/244/43
usemtl SBS - Tiny Texture Pack 2 - 128x128/128x128/Tile/Tile_20-128x128
f  94/245/7  89/246/7  88/247/7  91/248/7
usemtl SBS - Tiny Texture Pack 2 - 128x128/128x128/Tile/Tile_20-128x128
f  92/249/8  87/250/8  90/251/8  93/252/8
usemtl SBS - Tiny Texture Pack 2 - 128x128/128x128/Tile/Tile_20-128x128
f  93/253/14  94/254/14  91/234/14  92/233/14

o entity3_brush8
usemtl SBS - Tiny Texture Pack 2 - 128x128/128x128/Tile/Tile_20-128x128
f  95/255/1  96/236/1  97/235/1  98/256/1
usemtl SBS - Tiny Texture Pack 2 - 128x128/128x128/Tile/Tile_20-128x128
f  99/257/44  97/258/44  96/259/44  100/260/44
usemtl SBS - Tiny Texture Pack 2 - 128x128/128x128/Tile/Tile_20-128x128
f  100/261/45  96/262/45  95/263/45  101/264/45
usemtl SBS - Tiny Texture Pack 2 - 128x128/128x128/Tile/Tile_20-128x128
f  102/265/46  98/266/46  97/267/46  99/268/46
usemtl SBS - Tiny Texture Pack 2 - 128x128/128x128/Tile/Tile_20-128x128
f  101/269/47  95/270/47  98/271/47  102/272/47
usemtl SBS - Tiny Texture Pack 2 - 128x128/128x128/Tile/Tile_20-128x128
f  102/273/14  99/254/14  100/253/14  101/274/14

o entity3_brush9
usemtl SBS - Tiny Texture Pack 2 - 128x128/128x128/Tile/Tile_20-128x128
f  103/275/1  104/255/1  105/256/1  106/276/1
usemtl SBS - Tiny Texture Pack 2 - 128x128/128x128/Tile/Tile_20-128x128
f  107/277/48  106/278/48  105/279/48  108/280/48
usemtl SBS - Tiny Texture Pack 2 - 128x128/128x128/Tile/Tile_20-128x128
f  108/281/49  105/282/49  104/283/49  109/284/49
usemtl SBS - Tiny Texture Pack 2 - 128x128/128x128/Tile/Tile_20-128x128
f  109/285/50  104/286/50  103/287/50  110/288/50
usemtl SBS - Tiny Texture Pack 2 - 128x128/128x128/Tile/Tile_20-128x128
f  110/289/51  103/290/51  106/291/51  107/292/51
usemtl SBS - Tiny Texture Pack 2 - 128x128/128x128/Tile/Tile_20-128x128
f  107/293/14  108/273/14  109/274/14  110/294/14

o entity3_brush10
usemtl SBS - Tiny Texture Pack 2 - 128x128/128x128/Tile/Tile_20-128x128
f  111/91/1  112/94/1  113/295/1  114/296/1
usemtl SBS - Tiny Texture Pack 2 - 128x128/128x128/Tile/Tile_20-128x128
f  115/297/52  112/298/52  111/299/52  116/300/52
usemtl SBS - Tiny Texture Pack 2 - 128x128/128x128/Tile/Tile_20-128x128
f  117/301/53  114/302/53  113/303/53  118/304/53
usemtl SBS - Tiny Texture Pack 2 - 128x128/128x128/Tile/Tile_20-128x128
f  118/305/54  113/306/54  112/307/54  115/308/54
usemtl SBS - Tiny Texture Pack 2 - 128x128/128x128/Tile/Tile_20-128x128
f  116/309/55  111/310/55  114/311/55  117/312/55
usemtl SBS - Tiny Texture Pack 2 - 128x128/128x128/Tile/Tile_20-128x128
f  118/313/14  115/113/14  116/112/14  117/314/14

o entity3_brush11
usemtl SBS - Tiny Texture Pack 2 - 128x128/128x128/Tile/Tile_20-128x128
f  119/276/1  120/296/1  121/295/1  122/275/1
usemtl SBS - Tiny Texture Pack 2 - 128x128/128x128/Tile/Tile_20-128x128
f  123/315/56  121/316/56  120/317/56  124/318/56
usemtl SBS - Tiny Texture Pack 2 - 128x128/128x128/Tile/Tile_20-128x128
f  124/319/2  120/320/2  119/321/2  125/322/2
usemtl SBS - Tiny Texture Pack 2 - 128x128/128x128/Tile/Tile_20-128x128
f  126/323/13  122/324/13  121/325/13  123/326/13
usemtl SBS - Tiny Texture Pack 2 - 128x128/128x128/Tile/Tile_20-128x128
f  125/327/57  119/328/57  122/329/57  126/330/57
usemtl SBS - Tiny Texture Pack 2 - 128x128/128x128/Tile/Tile_20-128x128
f  126/294/14  123/313/14  124/314/14  125/293/14

o entity4_brush0
usemtl SBS - Tiny Texture Pack 2 - 128x128/128x128/Elements/Elements_13-128x128
f  127/331/1  128/332/1  129/333/1  130/334/1  131/335/1
usemtl SBS - Tiny Texture Pack 2 - 128x128/128x128/Elements/Elements_13-128x128
f  132/336/58  128/337/58  127/338/58  133/339/58
usemtl SBS - Tiny Texture Pack 2 - 128x128/128x128/Elements/Elements_13-128x128
f  134/340/59  129/341/59  128/342/59  132/343/59
usemtl SBS - Tiny Texture Pack 2 - 128x128/128x128/Elements/Elements_13-128x128
f  135/344/60  131/345/60  130/346/60  136/347/60
usemtl SBS - Tiny Texture Pack 2 - 128x128/128x128/Elements/Elements_13-128x128
f  136/348/61  130/349/61  129/350/61  134/351/61
usemtl SBS - Tiny Texture Pack 2 - 128x128/128x128/Elements/Elements_13-128x128
f  133/352/62  127/353/62  131/354/62  135/355/62
usemtl SBS - Tiny Texture Pack 2 - 128x128/128x128/Elements/Elements_13-128x128
f  134/356/14  132/357/14  133/358/14  135/359/14  136/360/14

o entity4_brush1
usemtl SBS - Tiny Texture Pack 2 - 128x128/128x128/Elements/Elements_13-128x128
f  137/361/1  138/74/1  139/73/1  140/362/1
usemtl SBS - Tiny Texture Pack 2 - 128x128/128x128/Elements/Elements_13-128x128
f  141/363/63  138/364/63  137/365/63  142/366/63
usemtl SBS - Tiny Texture Pack 2 - 128x128/128x128/Elements/Elements_13-128x128
f  143/367/64  140/368/64  139/369/64  144/370/64
usemtl SBS - Tiny Texture Pack 2 - 128x128/128x128/Elements/Elements_13-128x128
f  144/371/65  139/372/65  138/373/65  141/374/65
usemtl SBS - Tiny Texture Pack 2 - 128x128/128x128/Elements/Elements_13-128x128
f  142/375/66  137/376/66  140/377/66  143/378/66
usemtl SBS - Tiny Texture Pack 2 - 128x128/128x128/Elements/Elements_13-128x128
f  144/89/14  141/88/14  142/379/14  143/380/14

o entity4_brush2
usemtl SBS - Tiny Texture Pack 2 - 128x128/128x128/Elements/Elements_13-128x128
f  145/332/1  146/331/1  147/381/1  148/382/1
usemtl SBS - Tiny Texture Pack 2 - 128x128/128x128/Elements/Elements_13-128x128
f  149/383/67  147/384/67  146/385/67  150/386/67
usemtl SBS - Tiny Texture Pack 2 - 128x128/128x128/Elements/Elements_13-128x128
f  150/387/68  146/388/68  145/389/68  151/390/68
usemtl SBS - Tiny Texture Pack 2 - 128x128/128x128/Elements/Elements_13-128x128
f  152/391/69  148/392/69  147/393/69  149/394/69
usemtl SBS - Tiny Texture Pack 2 - 128x128/128x128/Elements/Elements_13-128x128
f  151/395/70  145/396/70  148/397/70  152/398/70
usemtl SBS - Tiny Texture Pack 2 - 128x128/128x128/Elements/Elements_13-128x128
f  152/399/14  149/400/14  150/358/14  151/357/14

o entity4_brush3
usemtl SBS - Tiny Texture Pack 2 - 128x128/128x128/Elements/Elements_13-128x128
f  153/401/1  154/402/1  155/403/1  156/404/1  157/405/1
usemtl SBS - Tiny Texture Pack 2 - 128x128/128x128/Elements/Elements_13-128x128
f  158/406/71  156/407/71  155/408/71  159/409/71
usemtl SBS - Tiny Texture Pack 2 - 128x128/128x128/Elements/Elements_13-128x128
f  159/410/72  155/411/72  154/412/72  160/413/72
usemtl SBS - Tiny Texture Pack 2 - 128x128/128x128/Elements/Elements_13-128x128
f  161/414/73  157/415/73  156/416/73  158/417/73
usemtl SBS - Tiny Texture Pack 2 - 128x128/128x128/Elements/Elements_13-128x128
f  160/418/74  154/419/74  153/420/74  162/421/74
usemtl SBS - Tiny Texture Pack 2 - 128x128/128x128/Elements/Elements_13-128x128
f  162/422/75  153/423/75  157/424/75  161/425/75
usemtl SBS - Tiny Texture Pack 2 - 128x128/128x128/Elements/Elements_13-128x128
f  159/426/14  160/427/14  162/428/14  161/429/14  158/430/14

o entity4_brush4
usemtl SBS - Tiny Texture Pack 2 - 128x128/128x128/Elements/Elements_13-128x128
f  163/73/1  164/431/1  165/432/1  166/362/1
usemtl SBS - Tiny Texture Pack 2 - 128x128/128x128/Elements/Elements_13-128x128
f  167/433/76  165/434/76  164/435/76  168/436/76
usemtl SBS - Tiny Texture Pack 2 - 128x128/128x128/Elements/Elements_13-128x128
f  168/437/77  164/438/77  163/439/77  169/440/77
usemtl SBS - Tiny Texture Pack 2 - 128x128/128x128/Elements/Elements_13-128x128
f  170/441/78  166/442/78  165/443/78  167/444/78
usemtl SBS - Tiny Texture Pack 2 - 128x128/128x128/Elements/Elements_13-128x128
f  169/445/79  163/446/79  166/447/79  170/448/79
usemtl SBS - Tiny Texture Pack 2 - 128x128/128x128/Elements/Elements_13-128x128
f  170/380/14  167/449/14  168/450/14  169/89/14

o entity4_brush5
usemtl SBS - Tiny Texture Pack 2 - 128x128/128x128/Elements/Elements_13-128x128
f  171/361/1  172/451/1  173/334/1  174/333/1
usemtl SBS - Tiny Texture Pack 2 - 128x128/128x128/Elements/Elements_13-128x128
f  175/452/80  172/453/80  171/454/80  176/455/80
usemtl SBS - Tiny Texture Pack 2 - 128x128/128x128/Elements/Elements_13-128x128
f  177/456/81  173/457/81  172/458/81  175/459/81
usemtl SBS - Tiny Texture Pack 2 - 128x128/128x128/Elements/Elements_13-128x128
f  178/460/82  174/461/82  173/462/82  177/463/82
usemtl SBS - Tiny Texture Pack 2 - 128x128/128x128/Elements/Elements_13-128x128
f  176/464/83  171/465/83  174/466/83  178/467/83
usemtl SBS - Tiny Texture Pack 2 - 128x128/128x128/Elements/Elements_13-128x128
f  178/356/14  177/360/14  175/468/14  176/379/14

